# xmcd
# Track frame offsets:
# 150
# 10999
# 23131
# 37566
# 49884
# 58391
# 71966
# 85230
# 98469
# 113030
#
# Disc length: 1698 seconds
# Revision: 0
# Processed by: cddbd v1.5.1PL2 Copyright (c) Steve Scherf et al.
# Submitted via: VisiTrax 2.10.0.248 - For more info visit www.synapsa.com
#
DISCID=7a06a00a
DTITLE=Willie Nelson - Danny Davis and Willie Nelson
DYEAR=1980
DGENRE=Country
TTITLE0=Night Life
TTITLE1=December Day
TTITLE2=Rainy Day Blues
TTITLE3=Hello Walls
TTITLE4=The Local Memory
TTITLE5=Funny How Time Slips Away
TTITLE6=Bloody Merry Morning
TTITLE7=My Own Peculiar Way
TTITLE8=Good Hearted Woman
TTITLE9=Yesterday's Wine
EXTD=
EXTT0=
EXTT1=
EXTT2=
EXTT3=
EXTT4=
EXTT5=
EXTT6=
EXTT7=
EXTT8=
EXTT9=
PLAYORDER=
